<svg width="18" height="18" viewBox="0 0 18 18" fill="none" xmlns="http://www.w3.org/2000/svg">
<path d="M0.558 17.9979C0.252 17.9979 0 17.746 0 17.44C0 17.224 0.126 17.044 0.306 16.936C1.53 16.2521 2.574 15.3162 3.384 14.1824C1.926 12.6345 1.116 10.5648 1.134 8.44103C1.134 3.77956 4.896 0 9.558 0C14.22 0 18 3.77956 18 8.44103C18 13.1025 14.22 16.8821 9.558 16.8821C9 16.8821 8.442 16.8281 7.884 16.7201C5.562 17.602 3.06 18.0339 0.558 17.9979ZM9.558 1.13387C5.526 1.13387 2.25 4.40949 2.25 8.44103C2.25 10.4388 3.06 12.3286 4.5 13.6964C4.698 13.8764 4.734 14.1644 4.59 14.3983C4.032 15.3162 3.33 16.1261 2.502 16.7921C4.266 16.6661 5.994 16.2521 7.632 15.6042C7.74 15.5682 7.848 15.5502 7.974 15.5682C11.916 16.4501 15.822 13.9844 16.704 10.0428C17.586 6.1013 15.12 2.19575 11.178 1.29585C10.638 1.18786 10.098 1.13387 9.558 1.13387Z" fill="white"/>
</svg>
