<svg width="16" height="16" viewBox="0 0 16 16" fill="none" xmlns="http://www.w3.org/2000/svg">
<path d="M8 0C3.584 0 0 3.584 0 8C0 12.416 3.584 16 8 16C12.416 16 16 12.416 16 8C16 3.584 12.416 0 8 0ZM8 14.864C4.224 14.864 1.136 11.776 1.136 8C1.136 4.224 4.224 1.136 8 1.136C11.776 1.136 14.864 4.208 14.864 8C14.864 11.776 11.776 14.864 8 14.864Z" fill="white"/>
<path d="M7.63203 2.84802C7.31203 2.84802 7.05603 3.10402 7.05603 3.42402V8.56002C7.07203 8.88002 7.32803 9.13602 7.64803 9.13602H11.12C11.44 9.13602 11.696 8.88002 11.696 8.56002C11.696 8.24002 11.44 7.98402 11.12 7.98402H8.19203V3.40802C8.19203 3.08802 7.95203 2.84802 7.63203 2.84802Z" fill="white"/>
</svg>
