<svg width="20" height="12" viewBox="0 0 20 12" fill="none" xmlns="http://www.w3.org/2000/svg">
<path d="M18.6025 5.48785C17.996 4.83242 17.3061 4.17637 16.5482 3.56553C14.4207 1.85108 12.1942 0.833333 10 0.833333C7.80578 0.833333 5.57931 1.85108 3.45184 3.56553C2.69386 4.17637 2.00397 4.83242 1.3975 5.48785C1.28633 5.60799 1.18235 5.72343 1.08582 5.83333C1.18235 5.94324 1.28633 6.05868 1.3975 6.17882C2.00397 6.83425 2.69386 7.4903 3.45184 8.10113C5.57931 9.81559 7.80578 10.8333 10 10.8333C12.1942 10.8333 14.4207 9.81559 16.5482 8.10113C17.3061 7.4903 17.996 6.83425 18.6025 6.17882C18.7137 6.05868 18.8176 5.94324 18.9142 5.83333C18.8176 5.72343 18.7137 5.60799 18.6025 5.48785ZM10 11.6667C4.47715 11.6667 0 5.83333 0 5.83333C0 5.83333 4.47715 0 10 0C15.5228 0 20 5.83333 20 5.83333C20 5.83333 15.5228 11.6667 10 11.6667ZM10 9.58333C12.0711 9.58333 13.75 7.9044 13.75 5.83333C13.75 3.76227 12.0711 2.08333 10 2.08333C7.92893 2.08333 6.25 3.76227 6.25 5.83333C6.25 7.9044 7.92893 9.58333 10 9.58333ZM10 8.75C8.38917 8.75 7.08333 7.44416 7.08333 5.83333C7.08333 4.2225 8.38917 2.91667 10 2.91667C11.6108 2.91667 12.9167 4.2225 12.9167 5.83333C12.9167 7.44416 11.6108 8.75 10 8.75Z" fill="white"/>
</svg>
